<svg xmlns="http://www.w3.org/2000/svg" version="1.1" xmlns:xlink="http://www.w3.org/1999/xlink" xmlns:svgjs="http://svgjs.com/svgjs" width="1920" height="1200" preserveAspectRatio="none" viewBox="0 0 1920 1200"><g mask="url(&quot;#SvgjsMask1500&quot;)" fill="none"><rect width="1920" height="1200" x="0" y="0" fill="url(#SvgjsLinearGradient1501)"></rect><path d="M1920 0L1134.9 0L1920 219.06z" fill="rgba(255, 255, 255, .1)"></path><path d="M1134.9 0L1920 219.06L1920 718.5799999999999L1043.76 0z" fill="rgba(255, 255, 255, .075)"></path><path d="M1043.76 0L1920 718.5799999999999L1920 923.1399999999999L899.34 0z" fill="rgba(255, 255, 255, .05)"></path><path d="M899.34 0L1920 923.1399999999999L1920 1063.9699999999998L587.86 0z" fill="rgba(255, 255, 255, .025)"></path><path d="M0 1200L156.38 1200L0 1146.9z" fill="rgba(0, 0, 0, .1)"></path><path d="M0 1146.9L156.38 1200L750.41 1200L0 1052.15z" fill="rgba(0, 0, 0, .075)"></path><path d="M0 1052.15L750.41 1200L1112.51 1200L0 847.4000000000001z" fill="rgba(0, 0, 0, .05)"></path><path d="M0 847.4L1112.51 1200L1251.45 1200L0 375.91999999999996z" fill="rgba(0, 0, 0, .025)"></path></g><defs><mask id="SvgjsMask1500"><rect width="1920" height="1200" fill="#ffffff"></rect></mask><linearGradient x1="0%" y1="50%" x2="100%" y2="50%" gradientUnits="userSpaceOnUse" id="SvgjsLinearGradient1501"><stop stop-color="#0e2a47" offset="0"></stop><stop stop-color="rgba(79, 41, 200, 1)" offset="1"></stop></linearGradient></defs></svg>