<svg xmlns="http://www.w3.org/2000/svg" version="1.1" xmlns:xlink="http://www.w3.org/1999/xlink" xmlns:svgjs="http://svgjs.com/svgjs" width="1920" height="1200" preserveAspectRatio="none" viewBox="0 0 1920 1200"><g mask="url(&quot;#SvgjsMask1017&quot;)" fill="none"><rect width="1920" height="1200" x="0" y="0" fill="rgba(163, 16, 16, 1)"></rect><path d="M0,515.007C110.928,525.26,221.446,543.872,327.387,509.424C454.063,468.234,610.363,424.943,658.706,300.821C707.387,175.833,586.539,50.756,556.99,-80.083C530.482,-197.458,554.174,-323.872,494.082,-428.124C427.256,-544.058,331.579,-654.305,203.556,-693.247C75.194,-732.292,-62.992,-687.566,-186.494,-635.139C-300.411,-586.781,-382.099,-494.365,-470.047,-407.298C-565.551,-312.751,-694.987,-235.385,-723.047,-103.959C-751.468,29.157,-700.721,174.391,-617.187,281.86C-540.284,380.798,-407.901,408.017,-290.675,452.3C-196.033,488.052,-100.741,505.696,0,515.007" fill="#820d0d"></path><path d="M1920 1778.237C2036.338 1802.1680000000001 2161.939 1795.345 2266.999 1739.941 2376.194 1682.357 2454.723 1579.8980000000001 2507.615 1468.355 2561.007 1355.757 2611.764 1223.309 2567.15 1106.954 2523.292 992.5699999999999 2379.579 961.158 2283.837 884.733 2208.7309999999998 824.78 2149.694 751.5640000000001 2065.014 706.1279999999999 1962.533 651.14 1856.31 572.22 1742.075 594.043 1626.659 616.091 1545.824 721.255 1479.193 818.039 1417.3899999999999 907.81 1372.117 1013.343 1378.5030000000002 1122.144 1384.404 1222.684 1463.304 1298.223 1512.536 1386.083 1557.132 1465.6689999999999 1588.301 1550.591 1654.033 1613.853 1730.679 1687.6190000000001 1815.805 1756.804 1920 1778.237" fill="#c41313"></path></g><defs><mask id="SvgjsMask1017"><rect width="1920" height="1200" fill="#ffffff"></rect></mask></defs></svg>