<svg xmlns="http://www.w3.org/2000/svg" version="1.1" xmlns:xlink="http://www.w3.org/1999/xlink" xmlns:svgjs="http://svgjs.com/svgjs" width="1920" height="1200" preserveAspectRatio="none" viewBox="0 0 1920 1200"><g mask="url(&quot;#SvgjsMask1026&quot;)" fill="none"><rect width="1920" height="1200" x="0" y="0" fill="rgba(23, 67, 113, 1)"></rect><path d="M322.77 1417.45C556.12 1308.25 559.42 587.81 894.37 559.97 1229.31 532.13 1180.17 709.97 1465.96 709.97 1751.76 709.97 1889.83 561.21 2037.56 559.97" stroke="rgba(51,121,194,0.58)" stroke-width="2"></path><path d="M345.87 1278.23C639.78 1183.72 720.03 340.39 1140.22 332.7 1560.41 325.01 1712.94 717.92 1934.57 728.7" stroke="rgba(51,121,194,0.58)" stroke-width="2"></path><path d="M502.48 1324.79C719.54 1210.62 709.48 519.98 1017.1 489.6 1324.72 459.22 1274.41 639.6 1531.73 639.6 1789.04 639.6 1912.35 491.12 2046.35 489.6" stroke="rgba(51,121,194,0.58)" stroke-width="2"></path><path d="M339.06 1357.82C599.06 1349.34 775.82 965.29 1295.68 948.41 1815.55 931.53 1992.45 548.81 2252.31 540.41" stroke="rgba(51,121,194,0.58)" stroke-width="2"></path><path d="M912.33 1220.02C1140.6 1164.7 1155.22 610.23 1570.66 549.74 1986.09 489.25 2040.36 190.31 2228.98 177.74" stroke="rgba(51,121,194,0.58)" stroke-width="2"></path></g><defs><mask id="SvgjsMask1026"><rect width="1920" height="1200" fill="#ffffff"></rect></mask></defs></svg>