<svg xmlns="http://www.w3.org/2000/svg" version="1.1" xmlns:xlink="http://www.w3.org/1999/xlink" xmlns:svgjs="http://svgjs.com/svgjs" width="1920" height="1200" preserveAspectRatio="none" viewBox="0 0 1920 1200"><g mask="url(&quot;#SvgjsMask1390&quot;)" fill="none"><rect width="1920" height="1200" x="0" y="0" fill="url(#SvgjsLinearGradient1391)"></rect><path d="M1920 0L1352.97 0L1920 289.57z" fill="rgba(255, 255, 255, .1)"></path><path d="M1352.97 0L1920 289.57L1920 525.27L1163.01 0z" fill="rgba(255, 255, 255, .075)"></path><path d="M1163.01 0L1920 525.27L1920 721.03L1106.74 0z" fill="rgba(255, 255, 255, .05)"></path><path d="M1106.74 0L1920 721.03L1920 820.37L331.29999999999995 0z" fill="rgba(255, 255, 255, .025)"></path><path d="M0 1200L146.24 1200L0 635.35z" fill="rgba(0, 0, 0, .1)"></path><path d="M0 635.35L146.24 1200L760.03 1200L0 608.38z" fill="rgba(0, 0, 0, .075)"></path><path d="M0 608.38L760.03 1200L1262.12 1200L0 500.51z" fill="rgba(0, 0, 0, .05)"></path><path d="M0 500.51L1262.12 1200L1586.02 1200L0 476.63z" fill="rgba(0, 0, 0, .025)"></path></g><defs><mask id="SvgjsMask1390"><rect width="1920" height="1200" fill="#ffffff"></rect></mask><linearGradient x1="0%" y1="50%" x2="100%" y2="50%" gradientUnits="userSpaceOnUse" id="SvgjsLinearGradient1391"><stop stop-color="#0e2a47" offset="0"></stop><stop stop-color="rgba(41, 110, 200, 1)" offset="1"></stop></linearGradient></defs></svg>