<svg xmlns="http://www.w3.org/2000/svg" version="1.1" xmlns:xlink="http://www.w3.org/1999/xlink" xmlns:svgjs="http://svgjs.com/svgjs" width="1000" height="800" preserveAspectRatio="none" viewBox="0 0 1000 800"><g mask="url(&quot;#SvgjsMask1058&quot;)" fill="none"><rect width="1000" height="800" x="0" y="0" fill="#0e2a47"></rect><path d="M-68.82 544.23L-68.82 544.23" stroke="rgba(29, 68, 149, 1)" stroke-width="1.5"></path><path d="M-68.82 544.23L-64.43 666.57" stroke="rgba(29, 68, 149, 1)" stroke-width="1.5"></path><path d="M-68.82 544.23L39.72 673.5" stroke="rgba(29, 68, 149, 1)" stroke-width="1.5"></path><path d="M-68.82 544.23L161.05 555.55" stroke="rgba(29, 68, 149, 1)" stroke-width="1.5"></path><path d="M-68.82 544.23L-32.25 802.43" stroke="rgba(29, 68, 149, 1)" stroke-width="1.5"></path><path d="M-68.82 544.23L79.94 785.57" stroke="rgba(29, 68, 149, 1)" stroke-width="1.5"></path><path d="M-64.43 666.57L-64.43 666.57" stroke="rgba(29, 68, 149, 1)" stroke-width="1.5"></path><path d="M-64.43 666.57L39.72 673.5" stroke="rgba(29, 68, 149, 1)" stroke-width="1.5"></path><path d="M-64.43 666.57L-32.25 802.43" stroke="rgba(29, 68, 149, 1)" stroke-width="1.5"></path><path d="M-64.43 666.57L79.94 785.57" stroke="rgba(29, 68, 149, 1)" stroke-width="1.5"></path><path d="M-64.43 666.57L161.05 555.55" stroke="rgba(29, 68, 149, 1)" stroke-width="1.5"></path><path d="M-32.25 802.43L-32.25 802.43" stroke="rgba(29, 68, 149, 1)" stroke-width="1.5"></path><path d="M-32.25 802.43L79.94 785.57" stroke="rgba(29, 68, 149, 1)" stroke-width="1.5"></path><path d="M-32.25 802.43L-58.24 945.27" stroke="rgba(29, 68, 149, 1)" stroke-width="1.5"></path><path d="M-32.25 802.43L39.72 673.5" stroke="rgba(29, 68, 149, 1)" stroke-width="1.5"></path><path d="M-32.25 802.43L61.11 962.69" stroke="rgba(29, 68, 149, 1)" stroke-width="1.5"></path><path d="M-58.24 945.27L-58.24 945.27" stroke="rgba(29, 68, 149, 1)" stroke-width="1.5"></path><path d="M-58.24 945.27L61.11 962.69" stroke="rgba(29, 68, 149, 1)" stroke-width="1.5"></path><path d="M-58.24 945.27L79.94 785.57" stroke="rgba(29, 68, 149, 1)" stroke-width="1.5"></path><path d="M-58.24 945.27L164.24 814.85" stroke="rgba(29, 68, 149, 1)" stroke-width="1.5"></path><path d="M-58.24 945.27L199.68 918.14" stroke="rgba(29, 68, 149, 1)" stroke-width="1.5"></path><path d="M-58.24 945.27L-64.43 666.57" stroke="rgba(29, 68, 149, 1)" stroke-width="1.5"></path><path d="M39.72 673.5L39.72 673.5" stroke="rgba(29, 68, 149, 1)" stroke-width="1.5"></path><path d="M39.72 673.5L79.94 785.57" stroke="rgba(29, 68, 149, 1)" stroke-width="1.5"></path><path d="M79.94 785.57L79.94 785.57" stroke="rgba(29, 68, 149, 1)" stroke-width="1.5"></path><path d="M79.94 785.57L164.24 814.85" stroke="rgba(29, 68, 149, 1)" stroke-width="1.5"></path><path d="M61.11 962.69L61.11 962.69" stroke="rgba(29, 68, 149, 1)" stroke-width="1.5"></path><path d="M61.11 962.69L199.68 918.14" stroke="rgba(29, 68, 149, 1)" stroke-width="1.5"></path><path d="M61.11 962.69L79.94 785.57" stroke="rgba(29, 68, 149, 1)" stroke-width="1.5"></path><path d="M161.05 555.55L161.05 555.55" stroke="rgba(29, 68, 149, 1)" stroke-width="1.5"></path><path d="M161.05 555.55L195.37 702.31" stroke="rgba(29, 68, 149, 1)" stroke-width="1.5"></path><path d="M161.05 555.55L39.72 673.5" stroke="rgba(29, 68, 149, 1)" stroke-width="1.5"></path><path d="M161.05 555.55L302.62 669.23" stroke="rgba(29, 68, 149, 1)" stroke-width="1.5"></path><path d="M161.05 555.55L339.94 589.1" stroke="rgba(29, 68, 149, 1)" stroke-width="1.5"></path><path d="M195.37 702.31L195.37 702.31" stroke="rgba(29, 68, 149, 1)" stroke-width="1.5"></path><path d="M195.37 702.31L302.62 669.23" stroke="rgba(29, 68, 149, 1)" stroke-width="1.5"></path><path d="M195.37 702.31L164.24 814.85" stroke="rgba(29, 68, 149, 1)" stroke-width="1.5"></path><path d="M164.24 814.85L164.24 814.85" stroke="rgba(29, 68, 149, 1)" stroke-width="1.5"></path><path d="M164.24 814.85L199.68 918.14" stroke="rgba(29, 68, 149, 1)" stroke-width="1.5"></path><path d="M164.24 814.85L341.58 806.68" stroke="rgba(29, 68, 149, 1)" stroke-width="1.5"></path><path d="M164.24 814.85L61.11 962.69" stroke="rgba(29, 68, 149, 1)" stroke-width="1.5"></path><path d="M199.68 918.14L199.68 918.14" stroke="rgba(29, 68, 149, 1)" stroke-width="1.5"></path><path d="M339.94 589.1L339.94 589.1" stroke="rgba(29, 68, 149, 1)" stroke-width="1.5"></path><path d="M339.94 589.1L302.62 669.23" stroke="rgba(29, 68, 149, 1)" stroke-width="1.5"></path><path d="M339.94 589.1L463.81 579.88" stroke="rgba(29, 68, 149, 1)" stroke-width="1.5"></path><path d="M302.62 669.23L302.62 669.23" stroke="rgba(29, 68, 149, 1)" stroke-width="1.5"></path><path d="M302.62 669.23L341.58 806.68" stroke="rgba(29, 68, 149, 1)" stroke-width="1.5"></path><path d="M341.58 806.68L341.58 806.68" stroke="rgba(29, 68, 149, 1)" stroke-width="1.5"></path><path d="M341.58 806.68L454.87 815.16" stroke="rgba(29, 68, 149, 1)" stroke-width="1.5"></path><path d="M341.58 806.68L410.27 907.12" stroke="rgba(29, 68, 149, 1)" stroke-width="1.5"></path><path d="M341.58 806.68L450.02 713.77" stroke="rgba(29, 68, 149, 1)" stroke-width="1.5"></path><path d="M304.63 968.69L304.63 968.69" stroke="rgba(29, 68, 149, 1)" stroke-width="1.5"></path><path d="M304.63 968.69L199.68 918.14" stroke="rgba(29, 68, 149, 1)" stroke-width="1.5"></path><path d="M304.63 968.69L410.27 907.12" stroke="rgba(29, 68, 149, 1)" stroke-width="1.5"></path><path d="M304.63 968.69L341.58 806.68" stroke="rgba(29, 68, 149, 1)" stroke-width="1.5"></path><path d="M304.63 968.69L164.24 814.85" stroke="rgba(29, 68, 149, 1)" stroke-width="1.5"></path><path d="M304.63 968.69L454.87 815.16" stroke="rgba(29, 68, 149, 1)" stroke-width="1.5"></path><path d="M436.24 335L436.24 335" stroke="rgba(29, 68, 149, 1)" stroke-width="1.5"></path><path d="M436.24 335L453.68 456.18" stroke="rgba(29, 68, 149, 1)" stroke-width="1.5"></path><path d="M436.24 335L565.48 291.31" stroke="rgba(29, 68, 149, 1)" stroke-width="1.5"></path><path d="M453.68 456.18L453.68 456.18" stroke="rgba(29, 68, 149, 1)" stroke-width="1.5"></path><path d="M453.68 456.18L565.36 408.33" stroke="rgba(29, 68, 149, 1)" stroke-width="1.5"></path><path d="M453.68 456.18L463.81 579.88" stroke="rgba(29, 68, 149, 1)" stroke-width="1.5"></path><path d="M453.68 456.18L584.31 540.56" stroke="rgba(29, 68, 149, 1)" stroke-width="1.5"></path><path d="M463.81 579.88L463.81 579.88" stroke="rgba(29, 68, 149, 1)" stroke-width="1.5"></path><path d="M463.81 579.88L584.31 540.56" stroke="rgba(29, 68, 149, 1)" stroke-width="1.5"></path><path d="M450.02 713.77L450.02 713.77" stroke="rgba(29, 68, 149, 1)" stroke-width="1.5"></path><path d="M450.02 713.77L454.87 815.16" stroke="rgba(29, 68, 149, 1)" stroke-width="1.5"></path><path d="M450.02 713.77L580.02 714.61" stroke="rgba(29, 68, 149, 1)" stroke-width="1.5"></path><path d="M450.02 713.77L463.81 579.88" stroke="rgba(29, 68, 149, 1)" stroke-width="1.5"></path><path d="M450.02 713.77L302.62 669.23" stroke="rgba(29, 68, 149, 1)" stroke-width="1.5"></path><path d="M450.02 713.77L339.94 589.1" stroke="rgba(29, 68, 149, 1)" stroke-width="1.5"></path><path d="M454.87 815.16L454.87 815.16" stroke="rgba(29, 68, 149, 1)" stroke-width="1.5"></path><path d="M454.87 815.16L410.27 907.12" stroke="rgba(29, 68, 149, 1)" stroke-width="1.5"></path><path d="M454.87 815.16L580.02 714.61" stroke="rgba(29, 68, 149, 1)" stroke-width="1.5"></path><path d="M410.27 907.12L410.27 907.12" stroke="rgba(29, 68, 149, 1)" stroke-width="1.5"></path><path d="M410.27 907.12L577.84 961.14" stroke="rgba(29, 68, 149, 1)" stroke-width="1.5"></path><path d="M410.27 907.12L450.02 713.77" stroke="rgba(29, 68, 149, 1)" stroke-width="1.5"></path><path d="M580.87 212.43L580.87 212.43" stroke="rgba(29, 68, 149, 1)" stroke-width="1.5"></path><path d="M580.87 212.43L565.48 291.31" stroke="rgba(29, 68, 149, 1)" stroke-width="1.5"></path><path d="M580.87 212.43L704.77 182.29" stroke="rgba(29, 68, 149, 1)" stroke-width="1.5"></path><path d="M580.87 212.43L688.26 303.86" stroke="rgba(29, 68, 149, 1)" stroke-width="1.5"></path><path d="M565.48 291.31L565.48 291.31" stroke="rgba(29, 68, 149, 1)" stroke-width="1.5"></path><path d="M565.48 291.31L565.36 408.33" stroke="rgba(29, 68, 149, 1)" stroke-width="1.5"></path><path d="M565.48 291.31L688.26 303.86" stroke="rgba(29, 68, 149, 1)" stroke-width="1.5"></path><path d="M565.36 408.33L565.36 408.33" stroke="rgba(29, 68, 149, 1)" stroke-width="1.5"></path><path d="M565.36 408.33L687.64 454.71" stroke="rgba(29, 68, 149, 1)" stroke-width="1.5"></path><path d="M565.36 408.33L584.31 540.56" stroke="rgba(29, 68, 149, 1)" stroke-width="1.5"></path><path d="M584.31 540.56L584.31 540.56" stroke="rgba(29, 68, 149, 1)" stroke-width="1.5"></path><path d="M584.31 540.56L674.82 588.19" stroke="rgba(29, 68, 149, 1)" stroke-width="1.5"></path><path d="M580.02 714.61L580.02 714.61" stroke="rgba(29, 68, 149, 1)" stroke-width="1.5"></path><path d="M580.02 714.61L665.62 790.52" stroke="rgba(29, 68, 149, 1)" stroke-width="1.5"></path><path d="M580.02 714.61L688.6 657.35" stroke="rgba(29, 68, 149, 1)" stroke-width="1.5"></path><path d="M577.84 961.14L577.84 961.14" stroke="rgba(29, 68, 149, 1)" stroke-width="1.5"></path><path d="M577.84 961.14L697.36 957.12" stroke="rgba(29, 68, 149, 1)" stroke-width="1.5"></path><path d="M577.84 961.14L454.87 815.16" stroke="rgba(29, 68, 149, 1)" stroke-width="1.5"></path><path d="M692.16 -77.23L692.16 -77.23" stroke="rgba(29, 68, 149, 1)" stroke-width="1.5"></path><path d="M692.16 -77.23L839.28 -74.64" stroke="rgba(29, 68, 149, 1)" stroke-width="1.5"></path><path d="M692.16 -77.23L696.17 70.38" stroke="rgba(29, 68, 149, 1)" stroke-width="1.5"></path><path d="M692.16 -77.23L788.64 60.47" stroke="rgba(29, 68, 149, 1)" stroke-width="1.5"></path><path d="M692.16 -77.23L947.72 -62.96" stroke="rgba(29, 68, 149, 1)" stroke-width="1.5"></path><path d="M692.16 -77.23L704.77 182.29" stroke="rgba(29, 68, 149, 1)" stroke-width="1.5"></path><path d="M692.16 -77.23L956.91 52.02" stroke="rgba(29, 68, 149, 1)" stroke-width="1.5"></path><path d="M696.17 70.38L696.17 70.38" stroke="rgba(29, 68, 149, 1)" stroke-width="1.5"></path><path d="M696.17 70.38L788.64 60.47" stroke="rgba(29, 68, 149, 1)" stroke-width="1.5"></path><path d="M696.17 70.38L704.77 182.29" stroke="rgba(29, 68, 149, 1)" stroke-width="1.5"></path><path d="M696.17 70.38L580.87 212.43" stroke="rgba(29, 68, 149, 1)" stroke-width="1.5"></path><path d="M704.77 182.29L704.77 182.29" stroke="rgba(29, 68, 149, 1)" stroke-width="1.5"></path><path d="M688.26 303.86L688.26 303.86" stroke="rgba(29, 68, 149, 1)" stroke-width="1.5"></path><path d="M688.26 303.86L704.77 182.29" stroke="rgba(29, 68, 149, 1)" stroke-width="1.5"></path><path d="M688.26 303.86L687.64 454.71" stroke="rgba(29, 68, 149, 1)" stroke-width="1.5"></path><path d="M688.26 303.86L842.25 317.52" stroke="rgba(29, 68, 149, 1)" stroke-width="1.5"></path><path d="M688.26 303.86L818.03 217.72" stroke="rgba(29, 68, 149, 1)" stroke-width="1.5"></path><path d="M687.64 454.71L687.64 454.71" stroke="rgba(29, 68, 149, 1)" stroke-width="1.5"></path><path d="M687.64 454.71L820.47 459.98" stroke="rgba(29, 68, 149, 1)" stroke-width="1.5"></path><path d="M687.64 454.71L674.82 588.19" stroke="rgba(29, 68, 149, 1)" stroke-width="1.5"></path><path d="M674.82 588.19L674.82 588.19" stroke="rgba(29, 68, 149, 1)" stroke-width="1.5"></path><path d="M674.82 588.19L688.6 657.35" stroke="rgba(29, 68, 149, 1)" stroke-width="1.5"></path><path d="M674.82 588.19L785.09 561.12" stroke="rgba(29, 68, 149, 1)" stroke-width="1.5"></path><path d="M688.6 657.35L688.6 657.35" stroke="rgba(29, 68, 149, 1)" stroke-width="1.5"></path><path d="M688.6 657.35L665.62 790.52" stroke="rgba(29, 68, 149, 1)" stroke-width="1.5"></path><path d="M688.6 657.35L785.09 561.12" stroke="rgba(29, 68, 149, 1)" stroke-width="1.5"></path><path d="M665.62 790.52L665.62 790.52" stroke="rgba(29, 68, 149, 1)" stroke-width="1.5"></path><path d="M665.62 790.52L802.67 802.49" stroke="rgba(29, 68, 149, 1)" stroke-width="1.5"></path><path d="M665.62 790.52L697.36 957.12" stroke="rgba(29, 68, 149, 1)" stroke-width="1.5"></path><path d="M665.62 790.52L801.63 908.25" stroke="rgba(29, 68, 149, 1)" stroke-width="1.5"></path><path d="M665.62 790.52L577.84 961.14" stroke="rgba(29, 68, 149, 1)" stroke-width="1.5"></path><path d="M697.36 957.12L697.36 957.12" stroke="rgba(29, 68, 149, 1)" stroke-width="1.5"></path><path d="M697.36 957.12L801.63 908.25" stroke="rgba(29, 68, 149, 1)" stroke-width="1.5"></path><path d="M697.36 957.12L802.67 802.49" stroke="rgba(29, 68, 149, 1)" stroke-width="1.5"></path><path d="M839.28 -74.64L839.28 -74.64" stroke="rgba(29, 68, 149, 1)" stroke-width="1.5"></path><path d="M839.28 -74.64L947.72 -62.96" stroke="rgba(29, 68, 149, 1)" stroke-width="1.5"></path><path d="M839.28 -74.64L788.64 60.47" stroke="rgba(29, 68, 149, 1)" stroke-width="1.5"></path><path d="M839.28 -74.64L956.91 52.02" stroke="rgba(29, 68, 149, 1)" stroke-width="1.5"></path><path d="M839.28 -74.64L696.17 70.38" stroke="rgba(29, 68, 149, 1)" stroke-width="1.5"></path><path d="M788.64 60.47L788.64 60.47" stroke="rgba(29, 68, 149, 1)" stroke-width="1.5"></path><path d="M788.64 60.47L704.77 182.29" stroke="rgba(29, 68, 149, 1)" stroke-width="1.5"></path><path d="M818.03 217.72L818.03 217.72" stroke="rgba(29, 68, 149, 1)" stroke-width="1.5"></path><path d="M818.03 217.72L912.51 214.74" stroke="rgba(29, 68, 149, 1)" stroke-width="1.5"></path><path d="M818.03 217.72L842.25 317.52" stroke="rgba(29, 68, 149, 1)" stroke-width="1.5"></path><path d="M818.03 217.72L704.77 182.29" stroke="rgba(29, 68, 149, 1)" stroke-width="1.5"></path><path d="M818.03 217.72L788.64 60.47" stroke="rgba(29, 68, 149, 1)" stroke-width="1.5"></path><path d="M818.03 217.72L942.44 335.3" stroke="rgba(29, 68, 149, 1)" stroke-width="1.5"></path><path d="M842.25 317.52L842.25 317.52" stroke="rgba(29, 68, 149, 1)" stroke-width="1.5"></path><path d="M842.25 317.52L942.44 335.3" stroke="rgba(29, 68, 149, 1)" stroke-width="1.5"></path><path d="M820.47 459.98L820.47 459.98" stroke="rgba(29, 68, 149, 1)" stroke-width="1.5"></path><path d="M820.47 459.98L913.7 434.53" stroke="rgba(29, 68, 149, 1)" stroke-width="1.5"></path><path d="M820.47 459.98L785.09 561.12" stroke="rgba(29, 68, 149, 1)" stroke-width="1.5"></path><path d="M785.09 561.12L785.09 561.12" stroke="rgba(29, 68, 149, 1)" stroke-width="1.5"></path><path d="M785.09 561.12L843.59 661.52" stroke="rgba(29, 68, 149, 1)" stroke-width="1.5"></path><path d="M785.09 561.12L687.64 454.71" stroke="rgba(29, 68, 149, 1)" stroke-width="1.5"></path><path d="M785.09 561.12L945.28 571.54" stroke="rgba(29, 68, 149, 1)" stroke-width="1.5"></path><path d="M843.59 661.52L843.59 661.52" stroke="rgba(29, 68, 149, 1)" stroke-width="1.5"></path><path d="M843.59 661.52L945.28 571.54" stroke="rgba(29, 68, 149, 1)" stroke-width="1.5"></path><path d="M843.59 661.52L802.67 802.49" stroke="rgba(29, 68, 149, 1)" stroke-width="1.5"></path><path d="M843.59 661.52L938.69 781.89" stroke="rgba(29, 68, 149, 1)" stroke-width="1.5"></path><path d="M843.59 661.52L688.6 657.35" stroke="rgba(29, 68, 149, 1)" stroke-width="1.5"></path><path d="M843.59 661.52L674.82 588.19" stroke="rgba(29, 68, 149, 1)" stroke-width="1.5"></path><path d="M802.67 802.49L802.67 802.49" stroke="rgba(29, 68, 149, 1)" stroke-width="1.5"></path><path d="M802.67 802.49L801.63 908.25" stroke="rgba(29, 68, 149, 1)" stroke-width="1.5"></path><path d="M802.67 802.49L938.69 781.89" stroke="rgba(29, 68, 149, 1)" stroke-width="1.5"></path><path d="M802.67 802.49L941.12 907.06" stroke="rgba(29, 68, 149, 1)" stroke-width="1.5"></path><path d="M802.67 802.49L688.6 657.35" stroke="rgba(29, 68, 149, 1)" stroke-width="1.5"></path><path d="M801.63 908.25L801.63 908.25" stroke="rgba(29, 68, 149, 1)" stroke-width="1.5"></path><path d="M801.63 908.25L941.12 907.06" stroke="rgba(29, 68, 149, 1)" stroke-width="1.5"></path><path d="M947.72 -62.96L947.72 -62.96" stroke="rgba(29, 68, 149, 1)" stroke-width="1.5"></path><path d="M947.72 -62.96L956.91 52.02" stroke="rgba(29, 68, 149, 1)" stroke-width="1.5"></path><path d="M947.72 -62.96L1093.14 -57.85" stroke="rgba(29, 68, 149, 1)" stroke-width="1.5"></path><path d="M947.72 -62.96L1056.24 56.04" stroke="rgba(29, 68, 149, 1)" stroke-width="1.5"></path><path d="M956.91 52.02L956.91 52.02" stroke="rgba(29, 68, 149, 1)" stroke-width="1.5"></path><path d="M956.91 52.02L1056.24 56.04" stroke="rgba(29, 68, 149, 1)" stroke-width="1.5"></path><path d="M956.91 52.02L788.64 60.47" stroke="rgba(29, 68, 149, 1)" stroke-width="1.5"></path><path d="M956.91 52.02L912.51 214.74" stroke="rgba(29, 68, 149, 1)" stroke-width="1.5"></path><path d="M956.91 52.02L1037.39 204.82" stroke="rgba(29, 68, 149, 1)" stroke-width="1.5"></path><path d="M912.51 214.74L912.51 214.74" stroke="rgba(29, 68, 149, 1)" stroke-width="1.5"></path><path d="M912.51 214.74L942.44 335.3" stroke="rgba(29, 68, 149, 1)" stroke-width="1.5"></path><path d="M912.51 214.74L842.25 317.52" stroke="rgba(29, 68, 149, 1)" stroke-width="1.5"></path><path d="M912.51 214.74L1037.39 204.82" stroke="rgba(29, 68, 149, 1)" stroke-width="1.5"></path><path d="M912.51 214.74L1069.61 282.95" stroke="rgba(29, 68, 149, 1)" stroke-width="1.5"></path><path d="M942.44 335.3L942.44 335.3" stroke="rgba(29, 68, 149, 1)" stroke-width="1.5"></path><path d="M942.44 335.3L913.7 434.53" stroke="rgba(29, 68, 149, 1)" stroke-width="1.5"></path><path d="M942.44 335.3L1069.61 282.95" stroke="rgba(29, 68, 149, 1)" stroke-width="1.5"></path><path d="M913.7 434.53L913.7 434.53" stroke="rgba(29, 68, 149, 1)" stroke-width="1.5"></path><path d="M945.28 571.54L945.28 571.54" stroke="rgba(29, 68, 149, 1)" stroke-width="1.5"></path><path d="M945.28 571.54L1071.83 563.28" stroke="rgba(29, 68, 149, 1)" stroke-width="1.5"></path><path d="M945.28 571.54L913.7 434.53" stroke="rgba(29, 68, 149, 1)" stroke-width="1.5"></path><path d="M945.28 571.54L820.47 459.98" stroke="rgba(29, 68, 149, 1)" stroke-width="1.5"></path><path d="M945.28 571.54L1075.68 683.87" stroke="rgba(29, 68, 149, 1)" stroke-width="1.5"></path><path d="M938.69 781.89L938.69 781.89" stroke="rgba(29, 68, 149, 1)" stroke-width="1.5"></path><path d="M938.69 781.89L941.12 907.06" stroke="rgba(29, 68, 149, 1)" stroke-width="1.5"></path><path d="M941.12 907.06L941.12 907.06" stroke="rgba(29, 68, 149, 1)" stroke-width="1.5"></path><path d="M941.12 907.06L1081.3 915.88" stroke="rgba(29, 68, 149, 1)" stroke-width="1.5"></path><path d="M941.12 907.06L1092.32 832.1" stroke="rgba(29, 68, 149, 1)" stroke-width="1.5"></path><path d="M941.12 907.06L697.36 957.12" stroke="rgba(29, 68, 149, 1)" stroke-width="1.5"></path><path d="M1093.14 -57.85L1093.14 -57.85" stroke="rgba(29, 68, 149, 1)" stroke-width="1.5"></path><path d="M1093.14 -57.85L1056.24 56.04" stroke="rgba(29, 68, 149, 1)" stroke-width="1.5"></path><path d="M1056.24 56.04L1056.24 56.04" stroke="rgba(29, 68, 149, 1)" stroke-width="1.5"></path><path d="M1056.24 56.04L1037.39 204.82" stroke="rgba(29, 68, 149, 1)" stroke-width="1.5"></path><path d="M1037.39 204.82L1037.39 204.82" stroke="rgba(29, 68, 149, 1)" stroke-width="1.5"></path><path d="M1037.39 204.82L1069.61 282.95" stroke="rgba(29, 68, 149, 1)" stroke-width="1.5"></path><path d="M1069.61 282.95L1069.61 282.95" stroke="rgba(29, 68, 149, 1)" stroke-width="1.5"></path><path d="M1069.61 282.95L1059.07 440.94" stroke="rgba(29, 68, 149, 1)" stroke-width="1.5"></path><path d="M1069.61 282.95L913.7 434.53" stroke="rgba(29, 68, 149, 1)" stroke-width="1.5"></path><path d="M1069.61 282.95L1056.24 56.04" stroke="rgba(29, 68, 149, 1)" stroke-width="1.5"></path><path d="M1059.07 440.94L1059.07 440.94" stroke="rgba(29, 68, 149, 1)" stroke-width="1.5"></path><path d="M1059.07 440.94L1071.83 563.28" stroke="rgba(29, 68, 149, 1)" stroke-width="1.5"></path><path d="M1059.07 440.94L913.7 434.53" stroke="rgba(29, 68, 149, 1)" stroke-width="1.5"></path><path d="M1059.07 440.94L942.44 335.3" stroke="rgba(29, 68, 149, 1)" stroke-width="1.5"></path><path d="M1071.83 563.28L1071.83 563.28" stroke="rgba(29, 68, 149, 1)" stroke-width="1.5"></path><path d="M1071.83 563.28L1075.68 683.87" stroke="rgba(29, 68, 149, 1)" stroke-width="1.5"></path><path d="M1071.83 563.28L913.7 434.53" stroke="rgba(29, 68, 149, 1)" stroke-width="1.5"></path><path d="M1071.83 563.28L843.59 661.52" stroke="rgba(29, 68, 149, 1)" stroke-width="1.5"></path><path d="M1071.83 563.28L938.69 781.89" stroke="rgba(29, 68, 149, 1)" stroke-width="1.5"></path><path d="M1075.68 683.87L1075.68 683.87" stroke="rgba(29, 68, 149, 1)" stroke-width="1.5"></path><path d="M1075.68 683.87L1092.32 832.1" stroke="rgba(29, 68, 149, 1)" stroke-width="1.5"></path><path d="M1075.68 683.87L938.69 781.89" stroke="rgba(29, 68, 149, 1)" stroke-width="1.5"></path><path d="M1075.68 683.87L1081.3 915.88" stroke="rgba(29, 68, 149, 1)" stroke-width="1.5"></path><path d="M1075.68 683.87L843.59 661.52" stroke="rgba(29, 68, 149, 1)" stroke-width="1.5"></path><path d="M1092.32 832.1L1092.32 832.1" stroke="rgba(29, 68, 149, 1)" stroke-width="1.5"></path><path d="M1092.32 832.1L1081.3 915.88" stroke="rgba(29, 68, 149, 1)" stroke-width="1.5"></path><path d="M1092.32 832.1L938.69 781.89" stroke="rgba(29, 68, 149, 1)" stroke-width="1.5"></path><path d="M1081.3 915.88L1081.3 915.88" stroke="rgba(29, 68, 149, 1)" stroke-width="1.5"></path><circle r="5" cx="-68.82" cy="544.23" fill="rgba(29, 68, 149, 1)"></circle><circle r="5" cx="-64.43" cy="666.57" fill="rgba(29, 68, 149, 1)"></circle><circle r="5" cx="-32.25" cy="802.43" fill="rgba(29, 68, 149, 1)"></circle><circle r="5" cx="-58.24" cy="945.27" fill="rgba(29, 68, 149, 1)"></circle><circle r="5" cx="39.72" cy="673.5" fill="rgba(29, 68, 149, 1)"></circle><circle r="5" cx="79.94" cy="785.57" fill="rgba(29, 68, 149, 1)"></circle><circle r="5" cx="61.11" cy="962.69" fill="rgba(29, 68, 149, 1)"></circle><circle r="5" cx="161.05" cy="555.55" fill="rgba(29, 68, 149, 1)"></circle><circle r="5" cx="195.37" cy="702.31" fill="rgba(29, 68, 149, 1)"></circle><circle r="5" cx="164.24" cy="814.85" fill="rgba(29, 68, 149, 1)"></circle><circle r="5" cx="199.68" cy="918.14" fill="rgba(29, 68, 149, 1)"></circle><circle r="5" cx="339.94" cy="589.1" fill="rgba(29, 68, 149, 1)"></circle><circle r="5" cx="302.62" cy="669.23" fill="rgba(29, 68, 149, 1)"></circle><circle r="5" cx="341.58" cy="806.68" fill="rgba(29, 68, 149, 1)"></circle><circle r="5" cx="304.63" cy="968.69" fill="rgba(29, 68, 149, 1)"></circle><circle r="5" cx="436.24" cy="335" fill="rgba(29, 68, 149, 1)"></circle><circle r="5" cx="453.68" cy="456.18" fill="rgba(29, 68, 149, 1)"></circle><circle r="5" cx="463.81" cy="579.88" fill="rgba(29, 68, 149, 1)"></circle><circle r="5" cx="450.02" cy="713.77" fill="rgba(29, 68, 149, 1)"></circle><circle r="5" cx="454.87" cy="815.16" fill="rgba(29, 68, 149, 1)"></circle><circle r="5" cx="410.27" cy="907.12" fill="rgba(29, 68, 149, 1)"></circle><circle r="5" cx="580.87" cy="212.43" fill="rgba(29, 68, 149, 1)"></circle><circle r="5" cx="565.48" cy="291.31" fill="rgba(29, 68, 149, 1)"></circle><circle r="5" cx="565.36" cy="408.33" fill="rgba(29, 68, 149, 1)"></circle><circle r="5" cx="584.31" cy="540.56" fill="rgba(29, 68, 149, 1)"></circle><circle r="5" cx="580.02" cy="714.61" fill="rgba(29, 68, 149, 1)"></circle><circle r="5" cx="577.84" cy="961.14" fill="rgba(29, 68, 149, 1)"></circle><circle r="5" cx="692.16" cy="-77.23" fill="rgba(29, 68, 149, 1)"></circle><circle r="5" cx="696.17" cy="70.38" fill="rgba(29, 68, 149, 1)"></circle><circle r="5" cx="704.77" cy="182.29" fill="rgba(29, 68, 149, 1)"></circle><circle r="5" cx="688.26" cy="303.86" fill="rgba(29, 68, 149, 1)"></circle><circle r="5" cx="687.64" cy="454.71" fill="rgba(29, 68, 149, 1)"></circle><circle r="5" cx="674.82" cy="588.19" fill="rgba(29, 68, 149, 1)"></circle><circle r="5" cx="688.6" cy="657.35" fill="rgba(29, 68, 149, 1)"></circle><circle r="5" cx="665.62" cy="790.52" fill="rgba(29, 68, 149, 1)"></circle><circle r="5" cx="697.36" cy="957.12" fill="rgba(29, 68, 149, 1)"></circle><circle r="5" cx="839.28" cy="-74.64" fill="rgba(29, 68, 149, 1)"></circle><circle r="5" cx="788.64" cy="60.47" fill="rgba(29, 68, 149, 1)"></circle><circle r="5" cx="818.03" cy="217.72" fill="rgba(29, 68, 149, 1)"></circle><circle r="5" cx="842.25" cy="317.52" fill="rgba(29, 68, 149, 1)"></circle><circle r="5" cx="820.47" cy="459.98" fill="rgba(29, 68, 149, 1)"></circle><circle r="5" cx="785.09" cy="561.12" fill="rgba(29, 68, 149, 1)"></circle><circle r="5" cx="843.59" cy="661.52" fill="rgba(29, 68, 149, 1)"></circle><circle r="5" cx="802.67" cy="802.49" fill="rgba(29, 68, 149, 1)"></circle><circle r="5" cx="801.63" cy="908.25" fill="rgba(29, 68, 149, 1)"></circle><circle r="5" cx="947.72" cy="-62.96" fill="rgba(29, 68, 149, 1)"></circle><circle r="5" cx="956.91" cy="52.02" fill="rgba(29, 68, 149, 1)"></circle><circle r="5" cx="912.51" cy="214.74" fill="rgba(29, 68, 149, 1)"></circle><circle r="5" cx="942.44" cy="335.3" fill="rgba(29, 68, 149, 1)"></circle><circle r="5" cx="913.7" cy="434.53" fill="rgba(29, 68, 149, 1)"></circle><circle r="5" cx="945.28" cy="571.54" fill="rgba(29, 68, 149, 1)"></circle><circle r="5" cx="938.69" cy="781.89" fill="rgba(29, 68, 149, 1)"></circle><circle r="5" cx="941.12" cy="907.06" fill="rgba(29, 68, 149, 1)"></circle><circle r="5" cx="1093.14" cy="-57.85" fill="rgba(29, 68, 149, 1)"></circle><circle r="5" cx="1056.24" cy="56.04" fill="rgba(29, 68, 149, 1)"></circle><circle r="5" cx="1037.39" cy="204.82" fill="rgba(29, 68, 149, 1)"></circle><circle r="5" cx="1069.61" cy="282.95" fill="rgba(29, 68, 149, 1)"></circle><circle r="5" cx="1059.07" cy="440.94" fill="rgba(29, 68, 149, 1)"></circle><circle r="5" cx="1071.83" cy="563.28" fill="rgba(29, 68, 149, 1)"></circle><circle r="5" cx="1075.68" cy="683.87" fill="rgba(29, 68, 149, 1)"></circle><circle r="5" cx="1092.32" cy="832.1" fill="rgba(29, 68, 149, 1)"></circle><circle r="5" cx="1081.3" cy="915.88" fill="rgba(29, 68, 149, 1)"></circle><path d="M57.24 706.54L57.24 706.54" stroke="hsl(158.29999999999995, 63.9%, 55.1%)" stroke-width="1.5"></path><path d="M57.24 706.54L179.24 690.01" stroke="hsl(158.29999999999995, 63.9%, 55.1%)" stroke-width="1.5"></path><path d="M57.24 706.54L80.9 840.23" stroke="hsl(158.29999999999995, 63.9%, 55.1%)" stroke-width="1.5"></path><path d="M57.24 706.54L183.84 787.5" stroke="hsl(158.29999999999995, 63.9%, 55.1%)" stroke-width="1.5"></path><path d="M57.24 706.54L-86.35 658.98" stroke="hsl(158.29999999999995, 63.9%, 55.1%)" stroke-width="1.5"></path><path d="M57.24 706.54L286.08 704.73" stroke="hsl(158.29999999999995, 63.9%, 55.1%)" stroke-width="1.5"></path><path d="M328.35 591.15L328.35 591.15" stroke="hsl(158.29999999999995, 63.9%, 55.1%)" stroke-width="1.5"></path><path d="M328.35 591.15L407.23 587.08" stroke="hsl(158.29999999999995, 63.9%, 55.1%)" stroke-width="1.5"></path><path d="M328.35 591.15L286.08 704.73" stroke="hsl(158.29999999999995, 63.9%, 55.1%)" stroke-width="1.5"></path><path d="M534.54 840.65L534.54 840.65" stroke="hsl(158.29999999999995, 63.9%, 55.1%)" stroke-width="1.5"></path><path d="M534.54 840.65L453.48 818.67" stroke="hsl(158.29999999999995, 63.9%, 55.1%)" stroke-width="1.5"></path><path d="M534.54 840.65L568.85 953.73" stroke="hsl(158.29999999999995, 63.9%, 55.1%)" stroke-width="1.5"></path><path d="M534.54 840.65L408.03 934.26" stroke="hsl(158.29999999999995, 63.9%, 55.1%)" stroke-width="1.5"></path><path d="M534.54 840.65L681.44 906.44" stroke="hsl(158.29999999999995, 63.9%, 55.1%)" stroke-width="1.5"></path><path d="M534.54 840.65L437.04 701.85" stroke="hsl(158.29999999999995, 63.9%, 55.1%)" stroke-width="1.5"></path><path d="M688.27 696.19L688.27 696.19" stroke="hsl(158.29999999999995, 63.9%, 55.1%)" stroke-width="1.5"></path><path d="M688.27 696.19L711.71 783.44" stroke="hsl(158.29999999999995, 63.9%, 55.1%)" stroke-width="1.5"></path><path d="M688.27 696.19L791.5 701.66" stroke="hsl(158.29999999999995, 63.9%, 55.1%)" stroke-width="1.5"></path><path d="M681.44 906.44L681.44 906.44" stroke="hsl(158.29999999999995, 63.9%, 55.1%)" stroke-width="1.5"></path><path d="M681.44 906.44L568.85 953.73" stroke="hsl(158.29999999999995, 63.9%, 55.1%)" stroke-width="1.5"></path><path d="M681.44 906.44L711.71 783.44" stroke="hsl(158.29999999999995, 63.9%, 55.1%)" stroke-width="1.5"></path><path d="M797.97 57.16L797.97 57.16" stroke="hsl(158.29999999999995, 63.9%, 55.1%)" stroke-width="1.5"></path><path d="M797.97 57.16L909.62 32.83" stroke="hsl(158.29999999999995, 63.9%, 55.1%)" stroke-width="1.5"></path><path d="M797.97 57.16L825.05 186.32" stroke="hsl(158.29999999999995, 63.9%, 55.1%)" stroke-width="1.5"></path><path d="M797.97 57.16L927 -40.57" stroke="hsl(158.29999999999995, 63.9%, 55.1%)" stroke-width="1.5"></path><path d="M825.05 186.32L825.05 186.32" stroke="hsl(158.29999999999995, 63.9%, 55.1%)" stroke-width="1.5"></path><path d="M825.05 186.32L808.07 320.56" stroke="hsl(158.29999999999995, 63.9%, 55.1%)" stroke-width="1.5"></path><path d="M825.05 186.32L966.57 165.4" stroke="hsl(158.29999999999995, 63.9%, 55.1%)" stroke-width="1.5"></path><path d="M825.05 186.32L924.27 312.44" stroke="hsl(158.29999999999995, 63.9%, 55.1%)" stroke-width="1.5"></path><path d="M825.05 186.32L707.29 309.91" stroke="hsl(158.29999999999995, 63.9%, 55.1%)" stroke-width="1.5"></path><path d="M817.8 931.31L817.8 931.31" stroke="hsl(158.29999999999995, 63.9%, 55.1%)" stroke-width="1.5"></path><path d="M817.8 931.31L839.78 828.73" stroke="hsl(158.29999999999995, 63.9%, 55.1%)" stroke-width="1.5"></path><path d="M817.8 931.31L681.44 906.44" stroke="hsl(158.29999999999995, 63.9%, 55.1%)" stroke-width="1.5"></path><path d="M817.8 931.31L965.38 907.1" stroke="hsl(158.29999999999995, 63.9%, 55.1%)" stroke-width="1.5"></path><path d="M965.38 907.1L965.38 907.1" stroke="hsl(158.29999999999995, 63.9%, 55.1%)" stroke-width="1.5"></path><path d="M965.38 907.1L955.36 835.41" stroke="hsl(158.29999999999995, 63.9%, 55.1%)" stroke-width="1.5"></path><path d="M965.38 907.1L839.78 828.73" stroke="hsl(158.29999999999995, 63.9%, 55.1%)" stroke-width="1.5"></path><path d="M1031.58 532.47L1031.58 532.47" stroke="hsl(158.29999999999995, 63.9%, 55.1%)" stroke-width="1.5"></path><path d="M1031.58 532.47L1071.75 458.99" stroke="hsl(158.29999999999995, 63.9%, 55.1%)" stroke-width="1.5"></path><path d="M1031.58 532.47L935.02 546.97" stroke="hsl(158.29999999999995, 63.9%, 55.1%)" stroke-width="1.5"></path><path d="M-86.35 658.98L-86.35 658.98" stroke="hsl(158.29999999999995, 63.9%, 55.1%)" stroke-width="1.5"></path><path d="M-86.35 658.98L80.9 840.23" stroke="hsl(158.29999999999995, 63.9%, 55.1%)" stroke-width="1.5"></path><path d="M-55.13 939.27L-55.13 939.27" stroke="hsl(158.29999999999995, 63.9%, 55.1%)" stroke-width="1.5"></path><path d="M-55.13 939.27L73.57 951.42" stroke="hsl(158.29999999999995, 63.9%, 55.1%)" stroke-width="1.5"></path><path d="M-55.13 939.27L80.9 840.23" stroke="hsl(158.29999999999995, 63.9%, 55.1%)" stroke-width="1.5"></path><path d="M-55.13 939.27L200.57 927.69" stroke="hsl(158.29999999999995, 63.9%, 55.1%)" stroke-width="1.5"></path><path d="M-55.13 939.27L57.24 706.54" stroke="hsl(158.29999999999995, 63.9%, 55.1%)" stroke-width="1.5"></path><path d="M-55.13 939.27L-86.35 658.98" stroke="hsl(158.29999999999995, 63.9%, 55.1%)" stroke-width="1.5"></path><path d="M80.9 840.23L80.9 840.23" stroke="hsl(158.29999999999995, 63.9%, 55.1%)" stroke-width="1.5"></path><path d="M80.9 840.23L73.57 951.42" stroke="hsl(158.29999999999995, 63.9%, 55.1%)" stroke-width="1.5"></path><path d="M80.9 840.23L183.84 787.5" stroke="hsl(158.29999999999995, 63.9%, 55.1%)" stroke-width="1.5"></path><path d="M73.57 951.42L73.57 951.42" stroke="hsl(158.29999999999995, 63.9%, 55.1%)" stroke-width="1.5"></path><path d="M73.57 951.42L200.57 927.69" stroke="hsl(158.29999999999995, 63.9%, 55.1%)" stroke-width="1.5"></path><path d="M73.57 951.42L183.84 787.5" stroke="hsl(158.29999999999995, 63.9%, 55.1%)" stroke-width="1.5"></path><path d="M73.57 951.42L57.24 706.54" stroke="hsl(158.29999999999995, 63.9%, 55.1%)" stroke-width="1.5"></path><path d="M73.57 951.42L334.51 935.67" stroke="hsl(158.29999999999995, 63.9%, 55.1%)" stroke-width="1.5"></path><path d="M179.24 690.01L179.24 690.01" stroke="hsl(158.29999999999995, 63.9%, 55.1%)" stroke-width="1.5"></path><path d="M179.24 690.01L183.84 787.5" stroke="hsl(158.29999999999995, 63.9%, 55.1%)" stroke-width="1.5"></path><path d="M179.24 690.01L286.08 704.73" stroke="hsl(158.29999999999995, 63.9%, 55.1%)" stroke-width="1.5"></path><path d="M183.84 787.5L183.84 787.5" stroke="hsl(158.29999999999995, 63.9%, 55.1%)" stroke-width="1.5"></path><path d="M183.84 787.5L304.67 786.16" stroke="hsl(158.29999999999995, 63.9%, 55.1%)" stroke-width="1.5"></path><path d="M183.84 787.5L286.08 704.73" stroke="hsl(158.29999999999995, 63.9%, 55.1%)" stroke-width="1.5"></path><path d="M200.57 927.69L200.57 927.69" stroke="hsl(158.29999999999995, 63.9%, 55.1%)" stroke-width="1.5"></path><path d="M200.57 927.69L334.51 935.67" stroke="hsl(158.29999999999995, 63.9%, 55.1%)" stroke-width="1.5"></path><path d="M200.57 927.69L183.84 787.5" stroke="hsl(158.29999999999995, 63.9%, 55.1%)" stroke-width="1.5"></path><path d="M200.57 927.69L80.9 840.23" stroke="hsl(158.29999999999995, 63.9%, 55.1%)" stroke-width="1.5"></path><path d="M200.57 927.69L304.67 786.16" stroke="hsl(158.29999999999995, 63.9%, 55.1%)" stroke-width="1.5"></path><path d="M286.08 704.73L286.08 704.73" stroke="hsl(158.29999999999995, 63.9%, 55.1%)" stroke-width="1.5"></path><path d="M286.08 704.73L304.67 786.16" stroke="hsl(158.29999999999995, 63.9%, 55.1%)" stroke-width="1.5"></path><path d="M286.08 704.73L437.04 701.85" stroke="hsl(158.29999999999995, 63.9%, 55.1%)" stroke-width="1.5"></path><path d="M286.08 704.73L407.23 587.08" stroke="hsl(158.29999999999995, 63.9%, 55.1%)" stroke-width="1.5"></path><path d="M304.67 786.16L304.67 786.16" stroke="hsl(158.29999999999995, 63.9%, 55.1%)" stroke-width="1.5"></path><path d="M334.51 935.67L334.51 935.67" stroke="hsl(158.29999999999995, 63.9%, 55.1%)" stroke-width="1.5"></path><path d="M334.51 935.67L408.03 934.26" stroke="hsl(158.29999999999995, 63.9%, 55.1%)" stroke-width="1.5"></path><path d="M407.23 587.08L407.23 587.08" stroke="hsl(158.29999999999995, 63.9%, 55.1%)" stroke-width="1.5"></path><path d="M407.23 587.08L437.04 701.85" stroke="hsl(158.29999999999995, 63.9%, 55.1%)" stroke-width="1.5"></path><path d="M407.23 587.08L586.79 571.23" stroke="hsl(158.29999999999995, 63.9%, 55.1%)" stroke-width="1.5"></path><path d="M407.23 587.08L575.63 666.79" stroke="hsl(158.29999999999995, 63.9%, 55.1%)" stroke-width="1.5"></path><path d="M437.04 701.85L437.04 701.85" stroke="hsl(158.29999999999995, 63.9%, 55.1%)" stroke-width="1.5"></path><path d="M437.04 701.85L453.48 818.67" stroke="hsl(158.29999999999995, 63.9%, 55.1%)" stroke-width="1.5"></path><path d="M437.04 701.85L575.63 666.79" stroke="hsl(158.29999999999995, 63.9%, 55.1%)" stroke-width="1.5"></path><path d="M437.04 701.85L328.35 591.15" stroke="hsl(158.29999999999995, 63.9%, 55.1%)" stroke-width="1.5"></path><path d="M437.04 701.85L304.67 786.16" stroke="hsl(158.29999999999995, 63.9%, 55.1%)" stroke-width="1.5"></path><path d="M453.48 818.67L453.48 818.67" stroke="hsl(158.29999999999995, 63.9%, 55.1%)" stroke-width="1.5"></path><path d="M453.48 818.67L408.03 934.26" stroke="hsl(158.29999999999995, 63.9%, 55.1%)" stroke-width="1.5"></path><path d="M453.48 818.67L304.67 786.16" stroke="hsl(158.29999999999995, 63.9%, 55.1%)" stroke-width="1.5"></path><path d="M453.48 818.67L334.51 935.67" stroke="hsl(158.29999999999995, 63.9%, 55.1%)" stroke-width="1.5"></path><path d="M453.48 818.67L568.85 953.73" stroke="hsl(158.29999999999995, 63.9%, 55.1%)" stroke-width="1.5"></path><path d="M408.03 934.26L408.03 934.26" stroke="hsl(158.29999999999995, 63.9%, 55.1%)" stroke-width="1.5"></path><path d="M408.03 934.26L568.85 953.73" stroke="hsl(158.29999999999995, 63.9%, 55.1%)" stroke-width="1.5"></path><path d="M586.79 571.23L586.79 571.23" stroke="hsl(158.29999999999995, 63.9%, 55.1%)" stroke-width="1.5"></path><path d="M586.79 571.23L575.63 666.79" stroke="hsl(158.29999999999995, 63.9%, 55.1%)" stroke-width="1.5"></path><path d="M586.79 571.23L686.38 564.43" stroke="hsl(158.29999999999995, 63.9%, 55.1%)" stroke-width="1.5"></path><path d="M575.63 666.79L575.63 666.79" stroke="hsl(158.29999999999995, 63.9%, 55.1%)" stroke-width="1.5"></path><path d="M575.63 666.79L688.27 696.19" stroke="hsl(158.29999999999995, 63.9%, 55.1%)" stroke-width="1.5"></path><path d="M575.63 666.79L686.38 564.43" stroke="hsl(158.29999999999995, 63.9%, 55.1%)" stroke-width="1.5"></path><path d="M568.85 953.73L568.85 953.73" stroke="hsl(158.29999999999995, 63.9%, 55.1%)" stroke-width="1.5"></path><path d="M568.85 953.73L711.71 783.44" stroke="hsl(158.29999999999995, 63.9%, 55.1%)" stroke-width="1.5"></path><path d="M568.85 953.73L334.51 935.67" stroke="hsl(158.29999999999995, 63.9%, 55.1%)" stroke-width="1.5"></path><path d="M707.29 309.91L707.29 309.91" stroke="hsl(158.29999999999995, 63.9%, 55.1%)" stroke-width="1.5"></path><path d="M707.29 309.91L808.07 320.56" stroke="hsl(158.29999999999995, 63.9%, 55.1%)" stroke-width="1.5"></path><path d="M707.29 309.91L689 424.81" stroke="hsl(158.29999999999995, 63.9%, 55.1%)" stroke-width="1.5"></path><path d="M707.29 309.91L784.87 429.24" stroke="hsl(158.29999999999995, 63.9%, 55.1%)" stroke-width="1.5"></path><path d="M707.29 309.91L924.27 312.44" stroke="hsl(158.29999999999995, 63.9%, 55.1%)" stroke-width="1.5"></path><path d="M707.29 309.91L804.72 532.08" stroke="hsl(158.29999999999995, 63.9%, 55.1%)" stroke-width="1.5"></path><path d="M689 424.81L689 424.81" stroke="hsl(158.29999999999995, 63.9%, 55.1%)" stroke-width="1.5"></path><path d="M689 424.81L784.87 429.24" stroke="hsl(158.29999999999995, 63.9%, 55.1%)" stroke-width="1.5"></path><path d="M689 424.81L686.38 564.43" stroke="hsl(158.29999999999995, 63.9%, 55.1%)" stroke-width="1.5"></path><path d="M689 424.81L804.72 532.08" stroke="hsl(158.29999999999995, 63.9%, 55.1%)" stroke-width="1.5"></path><path d="M689 424.81L808.07 320.56" stroke="hsl(158.29999999999995, 63.9%, 55.1%)" stroke-width="1.5"></path><path d="M686.38 564.43L686.38 564.43" stroke="hsl(158.29999999999995, 63.9%, 55.1%)" stroke-width="1.5"></path><path d="M686.38 564.43L804.72 532.08" stroke="hsl(158.29999999999995, 63.9%, 55.1%)" stroke-width="1.5"></path><path d="M686.38 564.43L688.27 696.19" stroke="hsl(158.29999999999995, 63.9%, 55.1%)" stroke-width="1.5"></path><path d="M711.71 783.44L711.71 783.44" stroke="hsl(158.29999999999995, 63.9%, 55.1%)" stroke-width="1.5"></path><path d="M711.71 783.44L791.5 701.66" stroke="hsl(158.29999999999995, 63.9%, 55.1%)" stroke-width="1.5"></path><path d="M808.07 320.56L808.07 320.56" stroke="hsl(158.29999999999995, 63.9%, 55.1%)" stroke-width="1.5"></path><path d="M808.07 320.56L784.87 429.24" stroke="hsl(158.29999999999995, 63.9%, 55.1%)" stroke-width="1.5"></path><path d="M808.07 320.56L924.27 312.44" stroke="hsl(158.29999999999995, 63.9%, 55.1%)" stroke-width="1.5"></path><path d="M784.87 429.24L784.87 429.24" stroke="hsl(158.29999999999995, 63.9%, 55.1%)" stroke-width="1.5"></path><path d="M784.87 429.24L804.72 532.08" stroke="hsl(158.29999999999995, 63.9%, 55.1%)" stroke-width="1.5"></path><path d="M784.87 429.24L937.65 424.39" stroke="hsl(158.29999999999995, 63.9%, 55.1%)" stroke-width="1.5"></path><path d="M804.72 532.08L804.72 532.08" stroke="hsl(158.29999999999995, 63.9%, 55.1%)" stroke-width="1.5"></path><path d="M804.72 532.08L935.02 546.97" stroke="hsl(158.29999999999995, 63.9%, 55.1%)" stroke-width="1.5"></path><path d="M791.5 701.66L791.5 701.66" stroke="hsl(158.29999999999995, 63.9%, 55.1%)" stroke-width="1.5"></path><path d="M791.5 701.66L839.78 828.73" stroke="hsl(158.29999999999995, 63.9%, 55.1%)" stroke-width="1.5"></path><path d="M791.5 701.66L960.49 699.55" stroke="hsl(158.29999999999995, 63.9%, 55.1%)" stroke-width="1.5"></path><path d="M791.5 701.66L804.72 532.08" stroke="hsl(158.29999999999995, 63.9%, 55.1%)" stroke-width="1.5"></path><path d="M791.5 701.66L686.38 564.43" stroke="hsl(158.29999999999995, 63.9%, 55.1%)" stroke-width="1.5"></path><path d="M839.78 828.73L839.78 828.73" stroke="hsl(158.29999999999995, 63.9%, 55.1%)" stroke-width="1.5"></path><path d="M839.78 828.73L955.36 835.41" stroke="hsl(158.29999999999995, 63.9%, 55.1%)" stroke-width="1.5"></path><path d="M839.78 828.73L711.71 783.44" stroke="hsl(158.29999999999995, 63.9%, 55.1%)" stroke-width="1.5"></path><path d="M927 -40.57L927 -40.57" stroke="hsl(158.29999999999995, 63.9%, 55.1%)" stroke-width="1.5"></path><path d="M927 -40.57L909.62 32.83" stroke="hsl(158.29999999999995, 63.9%, 55.1%)" stroke-width="1.5"></path><path d="M927 -40.57L1047.74 -70.47" stroke="hsl(158.29999999999995, 63.9%, 55.1%)" stroke-width="1.5"></path><path d="M927 -40.57L1031.78 92.52" stroke="hsl(158.29999999999995, 63.9%, 55.1%)" stroke-width="1.5"></path><path d="M927 -40.57L966.57 165.4" stroke="hsl(158.29999999999995, 63.9%, 55.1%)" stroke-width="1.5"></path><path d="M909.62 32.83L909.62 32.83" stroke="hsl(158.29999999999995, 63.9%, 55.1%)" stroke-width="1.5"></path><path d="M966.57 165.4L966.57 165.4" stroke="hsl(158.29999999999995, 63.9%, 55.1%)" stroke-width="1.5"></path><path d="M966.57 165.4L1031.78 92.52" stroke="hsl(158.29999999999995, 63.9%, 55.1%)" stroke-width="1.5"></path><path d="M966.57 165.4L1066.99 156.37" stroke="hsl(158.29999999999995, 63.9%, 55.1%)" stroke-width="1.5"></path><path d="M924.27 312.44L924.27 312.44" stroke="hsl(158.29999999999995, 63.9%, 55.1%)" stroke-width="1.5"></path><path d="M924.27 312.44L937.65 424.39" stroke="hsl(158.29999999999995, 63.9%, 55.1%)" stroke-width="1.5"></path><path d="M937.65 424.39L937.65 424.39" stroke="hsl(158.29999999999995, 63.9%, 55.1%)" stroke-width="1.5"></path><path d="M937.65 424.39L935.02 546.97" stroke="hsl(158.29999999999995, 63.9%, 55.1%)" stroke-width="1.5"></path><path d="M937.65 424.39L1071.75 458.99" stroke="hsl(158.29999999999995, 63.9%, 55.1%)" stroke-width="1.5"></path><path d="M937.65 424.39L1031.58 532.47" stroke="hsl(158.29999999999995, 63.9%, 55.1%)" stroke-width="1.5"></path><path d="M935.02 546.97L935.02 546.97" stroke="hsl(158.29999999999995, 63.9%, 55.1%)" stroke-width="1.5"></path><path d="M960.49 699.55L960.49 699.55" stroke="hsl(158.29999999999995, 63.9%, 55.1%)" stroke-width="1.5"></path><path d="M960.49 699.55L1049.93 705.66" stroke="hsl(158.29999999999995, 63.9%, 55.1%)" stroke-width="1.5"></path><path d="M960.49 699.55L955.36 835.41" stroke="hsl(158.29999999999995, 63.9%, 55.1%)" stroke-width="1.5"></path><path d="M960.49 699.55L935.02 546.97" stroke="hsl(158.29999999999995, 63.9%, 55.1%)" stroke-width="1.5"></path><path d="M960.49 699.55L1088.07 788.67" stroke="hsl(158.29999999999995, 63.9%, 55.1%)" stroke-width="1.5"></path><path d="M960.49 699.55L839.78 828.73" stroke="hsl(158.29999999999995, 63.9%, 55.1%)" stroke-width="1.5"></path><path d="M955.36 835.41L955.36 835.41" stroke="hsl(158.29999999999995, 63.9%, 55.1%)" stroke-width="1.5"></path><path d="M1047.74 -70.47L1047.74 -70.47" stroke="hsl(158.29999999999995, 63.9%, 55.1%)" stroke-width="1.5"></path><path d="M1047.74 -70.47L1031.78 92.52" stroke="hsl(158.29999999999995, 63.9%, 55.1%)" stroke-width="1.5"></path><path d="M1047.74 -70.47L909.62 32.83" stroke="hsl(158.29999999999995, 63.9%, 55.1%)" stroke-width="1.5"></path><path d="M1031.78 92.52L1031.78 92.52" stroke="hsl(158.29999999999995, 63.9%, 55.1%)" stroke-width="1.5"></path><path d="M1031.78 92.52L1066.99 156.37" stroke="hsl(158.29999999999995, 63.9%, 55.1%)" stroke-width="1.5"></path><path d="M1031.78 92.52L909.62 32.83" stroke="hsl(158.29999999999995, 63.9%, 55.1%)" stroke-width="1.5"></path><path d="M1066.99 156.37L1066.99 156.37" stroke="hsl(158.29999999999995, 63.9%, 55.1%)" stroke-width="1.5"></path><path d="M1066.99 156.37L1078.53 318.32" stroke="hsl(158.29999999999995, 63.9%, 55.1%)" stroke-width="1.5"></path><path d="M1066.99 156.37L909.62 32.83" stroke="hsl(158.29999999999995, 63.9%, 55.1%)" stroke-width="1.5"></path><path d="M1078.53 318.32L1078.53 318.32" stroke="hsl(158.29999999999995, 63.9%, 55.1%)" stroke-width="1.5"></path><path d="M1078.53 318.32L1071.75 458.99" stroke="hsl(158.29999999999995, 63.9%, 55.1%)" stroke-width="1.5"></path><path d="M1078.53 318.32L924.27 312.44" stroke="hsl(158.29999999999995, 63.9%, 55.1%)" stroke-width="1.5"></path><path d="M1071.75 458.99L1071.75 458.99" stroke="hsl(158.29999999999995, 63.9%, 55.1%)" stroke-width="1.5"></path><path d="M1071.75 458.99L935.02 546.97" stroke="hsl(158.29999999999995, 63.9%, 55.1%)" stroke-width="1.5"></path><path d="M1049.93 705.66L1049.93 705.66" stroke="hsl(158.29999999999995, 63.9%, 55.1%)" stroke-width="1.5"></path><path d="M1049.93 705.66L1088.07 788.67" stroke="hsl(158.29999999999995, 63.9%, 55.1%)" stroke-width="1.5"></path><path d="M1088.07 788.67L1088.07 788.67" stroke="hsl(158.29999999999995, 63.9%, 55.1%)" stroke-width="1.5"></path><path d="M1088.07 788.67L955.36 835.41" stroke="hsl(158.29999999999995, 63.9%, 55.1%)" stroke-width="1.5"></path><path d="M1088.07 788.67L965.38 907.1" stroke="hsl(158.29999999999995, 63.9%, 55.1%)" stroke-width="1.5"></path><circle r="25" cx="57.24" cy="706.54" fill="url(#SvgjsRadialGradient1059)"></circle><circle r="25" cx="328.35" cy="591.15" fill="url(#SvgjsRadialGradient1059)"></circle><circle r="25" cx="534.54" cy="840.65" fill="url(#SvgjsRadialGradient1059)"></circle><circle r="25" cx="688.27" cy="696.19" fill="url(#SvgjsRadialGradient1059)"></circle><circle r="25" cx="681.44" cy="906.44" fill="url(#SvgjsRadialGradient1059)"></circle><circle r="25" cx="797.97" cy="57.16" fill="url(#SvgjsRadialGradient1059)"></circle><circle r="25" cx="825.05" cy="186.32" fill="url(#SvgjsRadialGradient1059)"></circle><circle r="25" cx="817.8" cy="931.31" fill="url(#SvgjsRadialGradient1059)"></circle><circle r="25" cx="965.38" cy="907.1" fill="url(#SvgjsRadialGradient1059)"></circle><circle r="25" cx="1031.58" cy="532.47" fill="url(#SvgjsRadialGradient1059)"></circle><circle r="5" cx="-86.35" cy="658.98" fill="#93d8bf"></circle><circle r="5" cx="-55.13" cy="939.27" fill="#93d8bf"></circle><circle r="5" cx="80.9" cy="840.23" fill="#93d8bf"></circle><circle r="5" cx="73.57" cy="951.42" fill="#93d8bf"></circle><circle r="5" cx="179.24" cy="690.01" fill="#93d8bf"></circle><circle r="5" cx="183.84" cy="787.5" fill="#93d8bf"></circle><circle r="5" cx="200.57" cy="927.69" fill="#93d8bf"></circle><circle r="5" cx="286.08" cy="704.73" fill="#93d8bf"></circle><circle r="5" cx="304.67" cy="786.16" fill="#93d8bf"></circle><circle r="5" cx="334.51" cy="935.67" fill="#93d8bf"></circle><circle r="5" cx="407.23" cy="587.08" fill="#93d8bf"></circle><circle r="5" cx="437.04" cy="701.85" fill="#93d8bf"></circle><circle r="5" cx="453.48" cy="818.67" fill="#93d8bf"></circle><circle r="5" cx="408.03" cy="934.26" fill="#93d8bf"></circle><circle r="5" cx="586.79" cy="571.23" fill="#93d8bf"></circle><circle r="5" cx="575.63" cy="666.79" fill="#93d8bf"></circle><circle r="5" cx="568.85" cy="953.73" fill="#93d8bf"></circle><circle r="5" cx="707.29" cy="309.91" fill="#93d8bf"></circle><circle r="5" cx="689" cy="424.81" fill="#93d8bf"></circle><circle r="5" cx="686.38" cy="564.43" fill="#93d8bf"></circle><circle r="5" cx="711.71" cy="783.44" fill="#93d8bf"></circle><circle r="5" cx="808.07" cy="320.56" fill="#93d8bf"></circle><circle r="5" cx="784.87" cy="429.24" fill="#93d8bf"></circle><circle r="5" cx="804.72" cy="532.08" fill="#93d8bf"></circle><circle r="5" cx="791.5" cy="701.66" fill="#93d8bf"></circle><circle r="5" cx="839.78" cy="828.73" fill="#93d8bf"></circle><circle r="5" cx="927" cy="-40.57" fill="#93d8bf"></circle><circle r="5" cx="909.62" cy="32.83" fill="#93d8bf"></circle><circle r="5" cx="966.57" cy="165.4" fill="#93d8bf"></circle><circle r="5" cx="924.27" cy="312.44" fill="#93d8bf"></circle><circle r="5" cx="937.65" cy="424.39" fill="#93d8bf"></circle><circle r="5" cx="935.02" cy="546.97" fill="#93d8bf"></circle><circle r="5" cx="960.49" cy="699.55" fill="#93d8bf"></circle><circle r="5" cx="955.36" cy="835.41" fill="#93d8bf"></circle><circle r="5" cx="1047.74" cy="-70.47" fill="#93d8bf"></circle><circle r="5" cx="1031.78" cy="92.52" fill="#93d8bf"></circle><circle r="5" cx="1066.99" cy="156.37" fill="#93d8bf"></circle><circle r="5" cx="1078.53" cy="318.32" fill="#93d8bf"></circle><circle r="5" cx="1071.75" cy="458.99" fill="#93d8bf"></circle><circle r="5" cx="1049.93" cy="705.66" fill="#93d8bf"></circle><circle r="5" cx="1088.07" cy="788.67" fill="#93d8bf"></circle></g><defs><mask id="SvgjsMask1058"><rect width="1000" height="800" fill="#ffffff"></rect></mask><radialGradient id="SvgjsRadialGradient1059"><stop stop-color="#ffffff" offset="0.1"></stop><stop stop-color="rgba(39, 177, 127, 1)" offset="0.2"></stop><stop stop-color="rgba(39, 177, 127, 0)" offset="1"></stop></radialGradient></defs></svg>